<?xml version="1.0" encoding="UTF-8"?>
<svg width="24px" height="24px" viewBox="0 0 24 24" version="1.1" xmlns="http://www.w3.org/2000/svg" xmlns:xlink="http://www.w3.org/1999/xlink">
    <!-- Generator: sketchtool 55.2 (78181) - https://sketchapp.com -->
    <title>F654BBDA-691D-4C21-B81E-06345166FFDD</title>
    <desc>Created with sketchtool.</desc>
    <defs>
        <path d="M24,12 C24,18.6288905 18.6269531,24 12,24 C5.37304688,24 0,18.6288905 0,12 C0,5.37498425 5.37304688,0 12,0 C18.6269531,0 24,5.37498425 24,12 Z M12,14.4193548 C10.7707126,14.4193548 9.77419355,15.4158739 9.77419355,16.6451613 C9.77419355,17.8744487 10.7707126,18.8709677 12,18.8709677 C13.2292874,18.8709677 14.2258065,17.8744487 14.2258065,16.6451613 C14.2258065,15.4158739 13.2292874,14.4193548 12,14.4193548 Z M9.88679751,6.4187563 L10.2457315,12.9994015 C10.2625063,13.3073022 10.5171056,13.5483871 10.8254788,13.5483871 L13.1745212,13.5483871 C13.4828944,13.5483871 13.7374937,13.3073022 13.7542685,12.9994015 L14.1132025,6.4187563 C14.1313477,6.08614226 13.8665417,5.80645161 13.5334551,5.80645161 L10.4664976,5.80645161 C10.133411,5.80645161 9.86865234,6.08614226 9.88679751,6.4187563 Z" id="path-1"></path>
    </defs>
    <g id="&quot;To-Declarative&quot;-Plugin" stroke="none" stroke-width="1" fill="none" fill-rule="evenodd">
        <g id="Error-State" transform="translate(-409.000000, -176.000000)">
            <g id="Icons-/-HoneyUI-/-Alert-/-exclamation-circle-/-24px" transform="translate(409.000000, 176.000000)">
                <mask id="mask-2" fill="white">
                    <use xlink:href="#path-1"></use>
                </mask>
                <g id="exclamation-circle" fill-rule="nonzero"></g>
                <g id="🎨-color-Colors-/-red-/-dark" mask="url(#mask-2)" fill="#BE282C">
                    <rect id=".red-dark" x="0" y="0" width="24" height="24"></rect>
                </g>
            </g>
        </g>
    </g>
</svg>