<?xml version="1.0" encoding="UTF-8"?>
<svg width="14px" height="14px" viewBox="0 0 14 14" version="1.1" xmlns="http://www.w3.org/2000/svg" xmlns:xlink="http://www.w3.org/1999/xlink">
    <!-- Generator: sketchtool 55.2 (78181) - https://sketchapp.com -->
    <title>334DE7C6-3549-483B-9568-FDA576DAD4D1</title>
    <desc>Created with sketchtool.</desc>
    <defs>
        <path d="M0.999999971,5.62499999 L0.999999971,1.74999997 C0.999999971,1.33437497 1.33437497,0.999999971 1.74999997,0.999999971 L5.62499999,0.999999971 C5.83124999,0.999999971 5.99999997,1.16874997 5.99999997,1.37499997 L5.99999997,2.62499998 C5.99999997,2.83124998 5.83124999,2.99999997 5.62499999,2.99999997 L2.99999997,2.99999997 L2.99999997,5.62499999 C2.99999997,5.83124999 2.83124998,5.99999997 2.62499998,5.99999997 L1.37499997,5.99999997 C1.16874997,5.99999997 0.999999971,5.83124999 0.999999971,5.62499999 Z M10,1.37499997 L10,2.62499998 C10,2.83124998 10.16875,2.99999997 10.375,2.99999997 L13,2.99999997 L13,5.62499999 C13,5.83124999 13.16875,5.99999997 13.375,5.99999997 L14.625,5.99999997 C14.83125,5.99999997 15,5.83124999 15,5.62499999 L15,1.74999997 C15,1.33437497 14.665625,0.999999971 14.25,0.999999971 L10.375,0.999999971 C10.16875,0.999999971 10,1.16874997 10,1.37499997 Z M14.625,10 L13.375,10 C13.16875,10 13,10.16875 13,10.375 L13,13 L10.375,13 C10.16875,13 10,13.16875 10,13.375 L10,14.625 C10,14.83125 10.16875,15 10.375,15 L14.25,15 C14.665625,15 15,14.665625 15,14.25 L15,10.375 C15,10.16875 14.83125,10 14.625,10 Z M5.99999997,14.625 L5.99999997,13.375 C5.99999997,13.16875 5.83124999,13 5.62499999,13 L2.99999997,13 L2.99999997,10.375 C2.99999997,10.16875 2.83124998,10 2.62499998,10 L1.37499997,10 C1.16874997,10 0.999999971,10.16875 0.999999971,10.375 L0.999999971,14.25 C0.999999971,14.665625 1.33437497,15 1.74999997,15 L5.62499999,15 C5.83124999,15 5.99999997,14.83125 5.99999997,14.625 Z" id="path-1"></path>
    </defs>
    <g id="&quot;To-Declarative&quot;-Plugin" stroke="none" stroke-width="1" fill="none" fill-rule="evenodd">
        <g id="Successful-State" transform="translate(-1274.000000, -424.000000)">
            <g id="-Icons-/-HoneyUI-/-Interfaces-/-Common-/-expand-/-16px" transform="translate(1273.000000, 423.000000)">
                <mask id="mask-2" fill="white">
                    <use xlink:href="#path-1"></use>
                </mask>
                <g id="expand" fill-rule="nonzero"></g>
                <g id="🎨-color-Colors-/-white-/-100" mask="url(#mask-2)" fill="#FFFFFF">
                    <rect id=".white-100" x="0" y="0" width="16" height="16"></rect>
                </g>
            </g>
        </g>
    </g>
</svg>