<?xml version="1.0" encoding="UTF-8"?>
<svg width="16px" height="16px" viewBox="0 0 16 16" version="1.1" xmlns="http://www.w3.org/2000/svg" xmlns:xlink="http://www.w3.org/1999/xlink">
    <!-- Generator: sketchtool 55.2 (78181) - https://sketchapp.com -->
    <title>C478BE54-90AB-4396-939A-73812583ABAA</title>
    <desc>Created with sketchtool.</desc>
    <defs>
        <path d="M14.5,-3.33333337e-08 L4.49999997,-3.33333337e-08 C3.67156248,-3.33333337e-08 2.99999997,0.671562469 2.99999997,1.49999997 L2.99999997,2.99999997 L1.49999997,2.99999997 C0.671562469,2.99999997 -3.33333337e-08,3.67156248 -3.33333337e-08,4.49999997 L-3.33333337e-08,14.5 C-3.33333337e-08,15.3284375 0.671562469,16 1.49999997,16 L11.5,16 C12.3284375,16 13,15.3284375 13,14.5 L13,13 L14.5,13 C15.3284375,13 16,12.3284375 16,11.5 L16,1.49999997 C16,0.671562469 15.3284375,-3.33333337e-08 14.5,-3.33333337e-08 Z M11.3125,14.5 L1.68749997,14.5 C1.58394658,14.5 1.49999997,14.4160534 1.49999997,14.3125 L1.49999997,4.68749999 C1.49999997,4.5839466 1.58394658,4.49999999 1.68749997,4.49999999 L2.99999997,4.49999999 L2.99999997,11.5 C2.99999997,12.3284375 3.67156248,13 4.49999997,13 L11.5,13 L11.5,14.3125 C11.5,14.4160534 11.4160534,14.5 11.3125,14.5 Z M14.3125,11.5 L4.68749999,11.5 C4.5839466,11.5 4.49999999,11.4160534 4.49999999,11.3125 L4.49999999,1.68749997 C4.49999999,1.58394658 4.5839466,1.49999997 4.68749999,1.49999997 L14.3125,1.49999997 C14.4160534,1.49999997 14.5,1.58394658 14.5,1.68749997 L14.5,11.3125 C14.5,11.4160534 14.4160534,11.5 14.3125,11.5 Z" id="path-1"></path>
    </defs>
    <g id="&quot;To-Declarative&quot;-Plugin" stroke="none" stroke-width="1" fill="none" fill-rule="evenodd">
        <g id="Successful-State" transform="translate(-1181.000000, -423.000000)">
            <g id="-Icons-/-HoneyUI-/-Interfaces-/-Common-/-clone-alt-/-16px" transform="translate(1181.000000, 423.000000)">
                <mask id="mask-2" fill="white">
                    <use xlink:href="#path-1"></use>
                </mask>
                <g id="clone" fill-rule="nonzero"></g>
                <g id="🎨-color-Colors-/-white-/-100" mask="url(#mask-2)" fill="#FFFFFF">
                    <rect id=".white-100" x="0" y="0" width="16" height="16"></rect>
                </g>
            </g>
        </g>
    </g>
</svg>