<?xml version="1.0" encoding="UTF-8"?>
<svg width="16px" height="16px" viewBox="0 0 16 16" version="1.1" xmlns="http://www.w3.org/2000/svg" xmlns:xlink="http://www.w3.org/1999/xlink">
    <!-- Generator: sketchtool 58 (101010) - https://sketch.com -->
    <title>B2CBBFF1-DAF7-4B7D-84C3-3F9D96EE1DC9</title>
    <desc>Created with sketchtool.</desc>
    <defs>
        <path d="M6.75000003,3.80140364e-13 L9.25000004,3.80140364e-13 C9.66562504,3.80140364e-13 10,0.334375001 10,0.750000003 L10,6 L12.7406251,6 C13.2968751,6 13.5750001,6.67187503 13.1812501,7.06562503 L8.42812504,11.821875 C8.19375003,12.0562501 7.80937503,12.0562501 7.57500003,11.821875 L2.81562501,7.06562503 C2.42187501,6.67187503 2.70000001,6 3.25625001,6 L6.00000002,6 L6.00000002,0.750000003 C6.00000002,0.334375001 6.33437503,3.80140364e-13 6.75000003,3.80140364e-13 Z M16,11.75 L16,15.2500001 C16,15.6656251 15.6656251,16 15.2500001,16 L0.750000003,16 C0.334375001,16 -7.46069873e-14,15.6656251 -7.46069873e-14,15.2500001 L-7.46069873e-14,11.75 C-7.46069873e-14,11.334375 0.334375001,11 0.750000003,11 L5.33437502,11 L6.86562503,12.5312501 C7.49375003,13.1593751 8.50625004,13.1593751 9.13437504,12.5312501 L10.665625,11 L15.2500001,11 C15.6656251,11 16,11.334375 16,11.75 Z M12.1250001,14.5000001 C12.1250001,14.1562501 11.84375,13.8750001 11.5,13.8750001 C11.15625,13.8750001 10.875,14.1562501 10.875,14.5000001 C10.875,14.8437501 11.15625,15.1250001 11.5,15.1250001 C11.84375,15.1250001 12.1250001,14.8437501 12.1250001,14.5000001 Z M14.1250001,14.5000001 C14.1250001,14.1562501 13.8437501,13.8750001 13.5000001,13.8750001 C13.1562501,13.8750001 12.8750001,14.1562501 12.8750001,14.5000001 C12.8750001,14.8437501 13.1562501,15.1250001 13.5000001,15.1250001 C13.8437501,15.1250001 14.1250001,14.8437501 14.1250001,14.5000001 Z" id="path-1"></path>
    </defs>
    <g id="&quot;To-Declarative&quot;-Plugin" stroke="none" stroke-width="1" fill="none" fill-rule="evenodd">
        <g id="Successful-State" transform="translate(-1259.000000, -423.000000)">
            <g id="-Icons-/-HoneyUI-/-Interfaces-/-Common-/-download-/-16px" transform="translate(1259.000000, 423.000000)">
                <mask id="mask-2" fill="white">
                    <use xlink:href="#path-1"></use>
                </mask>
                <g id="download" fill-rule="nonzero"></g>
                <g id="🎨-color-Colors-/-white-/-100" mask="url(#mask-2)" fill="#FFFFFF">
                    <g transform="translate(0.000000, 0.000000)" id=".white-100">
                        <rect x="0" y="0" width="16" height="16"></rect>
                    </g>
                </g>
            </g>
        </g>
    </g>
</svg>