<?xml version="1.0" encoding="UTF-8"?>
<svg width="14px" height="14px" viewBox="0 0 14 14" version="1.1" xmlns="http://www.w3.org/2000/svg" xmlns:xlink="http://www.w3.org/1999/xlink">
    <!-- Generator: sketchtool 55.2 (78181) - https://sketchapp.com -->
    <title>0215EFBA-4BA3-4EE1-8F10-2926CA704E7D</title>
    <desc>Created with sketchtool.</desc>
    <defs>
        <path d="M14.625,5.99999997 L10.75,5.99999997 C10.334375,5.99999997 10,5.66562499 10,5.24999999 L10,1.37499997 C10,1.16874997 10.16875,0.999999971 10.375,0.999999971 L11.625,0.999999971 C11.83125,0.999999971 12,1.16874997 12,1.37499997 L12,3.99999997 L14.625,3.99999997 C14.83125,3.99999997 15,4.16874998 15,4.37499998 L15,5.62499999 C15,5.83124999 14.83125,5.99999997 14.625,5.99999997 Z M5.99999997,5.24999999 L5.99999997,1.37499997 C5.99999997,1.16874997 5.83124999,0.999999971 5.62499999,0.999999971 L4.37499998,0.999999971 C4.16874998,0.999999971 3.99999997,1.16874997 3.99999997,1.37499997 L3.99999997,3.99999997 L1.37499997,3.99999997 C1.16874997,3.99999997 0.999999971,4.16874998 0.999999971,4.37499998 L0.999999971,5.62499999 C0.999999971,5.83124999 1.16874997,5.99999997 1.37499997,5.99999997 L5.24999999,5.99999997 C5.66562499,5.99999997 5.99999997,5.66562499 5.99999997,5.24999999 Z M5.99999997,14.625 L5.99999997,10.75 C5.99999997,10.334375 5.66562499,10 5.24999999,10 L1.37499997,10 C1.16874997,10 0.999999971,10.16875 0.999999971,10.375 L0.999999971,11.625 C0.999999971,11.83125 1.16874997,12 1.37499997,12 L3.99999997,12 L3.99999997,14.625 C3.99999997,14.83125 4.16874998,15 4.37499998,15 L5.62499999,15 C5.83124999,15 5.99999997,14.83125 5.99999997,14.625 Z M12,14.625 L12,12 L14.625,12 C14.83125,12 15,11.83125 15,11.625 L15,10.375 C15,10.16875 14.83125,10 14.625,10 L10.75,10 C10.334375,10 10,10.334375 10,10.75 L10,14.625 C10,14.83125 10.16875,15 10.375,15 L11.625,15 C11.83125,15 12,14.83125 12,14.625 Z" id="path-1"></path>
    </defs>
    <g id="&quot;To-Declarative&quot;-Plugin" stroke="none" stroke-width="1" fill="none" fill-rule="evenodd">
        <g id="Successful-State-Expanded" transform="translate(-1269.000000, -121.000000)">
            <g id="-Icons-/-HoneyUI-/-Interfaces-/-Common-/-compress-/-16px" transform="translate(1268.000000, 120.000000)">
                <mask id="mask-2" fill="white">
                    <use xlink:href="#path-1"></use>
                </mask>
                <g id="compress" fill-rule="nonzero"></g>
                <g id="🎨-color-Colors-/-white-/-100" mask="url(#mask-2)" fill="#FFFFFF">
                    <rect id=".white-100" x="0" y="0" width="16" height="16"></rect>
                </g>
            </g>
        </g>
    </g>
</svg>