<?xml version="1.0" encoding="UTF-8"?>
<svg width="24px" height="24px" viewBox="0 0 24 24" version="1.1" xmlns="http://www.w3.org/2000/svg" xmlns:xlink="http://www.w3.org/1999/xlink">
    <!-- Generator: sketchtool 55.2 (78181) - https://sketchapp.com -->
    <title>DB435AFE-4F07-4EFB-9F64-FF7745E7C538</title>
    <desc>Created with sketchtool.</desc>
    <defs>
        <path d="M23.625,12 C23.625,18.4203282 18.4203282,23.625 12,23.625 C5.57967185,23.625 0.374999952,18.4203282 0.374999952,12 C0.374999952,5.57967185 5.57967185,0.374999952 12,0.374999952 C18.4203282,0.374999952 23.625,5.57967185 23.625,12 Z M10.6553437,18.1553438 L19.2803438,9.53034374 C19.5732188,9.23746874 19.5732188,8.76257811 19.2803438,8.46970311 L18.2197032,7.40906248 C17.9268281,7.1161406 17.4519375,7.1161406 17.1590156,7.40906248 L10.125,14.4430313 L6.84098435,11.1590156 C6.54810935,10.8661406 6.07321873,10.8661406 5.78029685,11.1590156 L4.71965622,12.2196563 C4.42678122,12.5125313 4.42678122,12.9874219 4.71965622,13.2802969 L9.59465624,18.1552969 C9.88757812,18.4482188 10.3624219,18.4482188 10.6553437,18.1553438 L10.6553437,18.1553438 Z" id="path-1"></path>
    </defs>
    <g id="&quot;To-Declarative&quot;-Plugin" stroke="none" stroke-width="1" fill="none" fill-rule="evenodd">
        <g id="Successful-State" transform="translate(-409.000000, -176.000000)">
            <g id="-Icons-/-HoneyUI-/-Interfaces-/-Common-/-check-circle-/-24px" transform="translate(409.000000, 176.000000)">
                <mask id="mask-2" fill="white">
                    <use xlink:href="#path-1"></use>
                </mask>
                <g id="check-circle" fill-rule="nonzero"></g>
                <g id="🎨-color-Colors-/-green-/-primary" mask="url(#mask-2)" fill="#22A78F">
                    <rect id=".green-primary" x="0" y="0" width="24" height="24"></rect>
                </g>
            </g>
        </g>
    </g>
</svg>