<?xml version="1.0" encoding="UTF-8"?>
<svg width="24px" height="21px" viewBox="0 0 24 21" version="1.1" xmlns="http://www.w3.org/2000/svg" xmlns:xlink="http://www.w3.org/1999/xlink">
    <!-- Generator: sketchtool 55.2 (78181) - https://sketchapp.com -->
    <title>A07BEF01-9497-4264-BD3D-81AF6C9F2DE0</title>
    <desc>Created with sketchtool.</desc>
    <defs>
        <path d="M23.7298792,20.0473957 C24.4989627,21.3596554 23.5335902,23 21.997539,23 L2.00226211,23 C0.463240536,23 -0.497696816,21.357132 0.269881191,20.0473957 L10.2676417,2.98377438 C11.0370914,1.67087385 12.9642966,1.67327711 13.7324035,2.98377438 L23.7298792,20.0473957 Z M12.0000226,16.5195313 C10.9414697,16.5195313 10.0833562,17.3642369 10.0833562,18.40625 C10.0833562,19.4482632 10.9414697,20.2929688 12.0000226,20.2929688 C13.0585755,20.2929688 13.916689,19.4482632 13.916689,18.40625 C13.916689,17.3642369 13.0585755,16.5195313 12.0000226,16.5195313 Z M10.1803207,9.73777403 L10.4894027,15.315899 C10.5038477,15.5768929 10.723086,15.7812501 10.9886295,15.7812501 L13.0114157,15.7812501 C13.2769593,15.7812501 13.4961975,15.5768929 13.5106425,15.315899 L13.8197245,9.73777403 C13.8353495,9.45583166 13.6073222,9.21875014 13.3204977,9.21875014 L10.6795069,9.21875014 C10.3926824,9.21875014 10.1646957,9.45583166 10.1803207,9.73777403 Z" id="path-1"></path>
    </defs>
    <g id="&quot;To-Declarative&quot;-Plugin" stroke="none" stroke-width="1" fill="none" fill-rule="evenodd">
        <g id="Successful-State-with-Errors" transform="translate(-409.000000, -178.000000)">
            <g id="Icons-/-HoneyUI-/-Alert-/-exclamation-triangle-/-24px" transform="translate(409.000000, 176.000000)">
                <mask id="mask-2" fill="white">
                    <use xlink:href="#path-1"></use>
                </mask>
                <use id="exclamation-triangle" fill="#006AB0" fill-rule="nonzero" xlink:href="#path-1"></use>
                <g id="🎨-color-Colors-/-yellow-/-primary" mask="url(#mask-2)" fill="#F4AB00">
                    <rect id=".yellow-primary" x="0" y="0" width="24" height="24"></rect>
                </g>
            </g>
        </g>
    </g>
</svg>